# xmcd
#
# Track frame offsets:
#	150
#	14858
#	27512
#	38470
#	52420
#	66343
#	80015
#	94738
#	108819
#	121375
#	133327
#	146827
#	157208
#
# Disc length: 2235 seconds
#
# Revision: 1
# Processed by: cddbd v1.4PL0 Copyright (c) Steve Scherf et al.
# Submitted via: audiograbber 1.81.03
#
DISCID=c608b90d
DTITLE=Michael Fix - Transfixed
DYEAR=1900
DGENRE=Instrumental
TTITLE0=Mr Wonglepong
TTITLE1=Bush Bash
TTITLE2=Dill Pickle Rag
TTITLE3=Sunrise Over Alice
TTITLE4=Rainy Day Blues
TTITLE5=Summer Storm
TTITLE6=Sun Daze
TTITLE7=Winds Of Change
TTITLE8=Green Thumb
TTITLE9=Gully's Breeze
TTITLE10=Walkin' The Walk
TTITLE11=Stringin' The Blue
TTITLE12=Breakup Breakdown
EXTD=An excellent Australian Guitarist
EXTT0=
EXTT1=
EXTT2=
EXTT3=
EXTT4=
EXTT5=
EXTT6=
EXTT7=
EXTT8=
EXTT9=
EXTT10=
EXTT11=
EXTT12=
PLAYORDER=
